<svg width="433" height="60" viewBox="0 0 433 60" fill="none" xmlns="http://www.w3.org/2000/svg">
<g clip-path="url(#clip0_101_5)">
<path d="M428.705 24.5529C429.376 22.5326 429.608 20.3924 429.385 18.2753C429.163 16.1581 428.491 14.1128 427.415 12.2759C425.82 9.4995 423.385 7.30132 420.46 5.99833C417.535 4.69533 414.272 4.35484 411.141 5.02593C409.362 3.04734 407.094 1.57161 404.565 0.746963C402.035 -0.0776851 399.333 -0.222218 396.73 0.327879C394.127 0.877977 391.714 2.10334 389.735 3.88089C387.755 5.65845 386.278 7.92561 385.452 10.4547C383.366 10.8824 381.395 11.7504 379.672 13.0007C377.948 14.2509 376.512 15.8547 375.457 17.7047C373.845 20.4765 373.156 23.6893 373.49 26.8785C373.823 30.0678 375.163 33.0683 377.314 35.4462C376.641 37.4655 376.407 39.6054 376.627 41.7226C376.847 43.8398 377.517 45.8855 378.592 47.7229C380.189 50.5004 382.627 52.6991 385.554 54.0021C388.48 55.3051 391.746 55.6451 394.878 54.9732C396.291 56.5646 398.028 57.8361 399.972 58.703C401.915 59.5699 404.022 60.0121 406.15 60.0002C409.359 60.0031 412.486 58.9863 415.079 57.0964C417.673 55.2065 419.599 52.5414 420.579 49.4857C422.665 49.0572 424.635 48.1889 426.358 46.9387C428.082 45.6884 429.519 44.085 430.573 42.2354C432.167 39.4677 432.844 36.267 432.508 33.0911C432.173 29.9151 430.841 26.9265 428.705 24.5529ZM406.15 56.0732C403.522 56.0773 400.976 55.1562 398.959 53.4712L399.313 53.2702L411.259 46.3747C411.557 46.2003 411.803 45.9516 411.976 45.653C412.148 45.3544 412.239 45.0161 412.241 44.6714V27.8292L417.291 30.7507C417.316 30.7633 417.338 30.7817 417.354 30.8043C417.371 30.8269 417.382 30.8531 417.386 30.8807V44.8372C417.38 47.8152 416.194 50.6695 414.088 52.7753C411.982 54.8811 409.128 56.0669 406.15 56.0732ZM381.998 45.7597C380.68 43.4837 380.207 40.8159 380.661 38.2254L381.016 38.4384L392.974 45.3339C393.27 45.5075 393.607 45.5991 393.95 45.5991C394.293 45.5991 394.63 45.5075 394.925 45.3339L409.532 36.9127V42.7437C409.531 42.7739 409.523 42.8034 409.509 42.83C409.494 42.8567 409.474 42.8797 409.449 42.8974L397.35 49.8757C394.768 51.3632 391.701 51.7653 388.823 50.9935C385.944 50.2218 383.49 48.3395 381.998 45.7597ZM378.852 19.7392C380.179 17.4486 382.274 15.7015 384.766 14.8072V29.0002C384.761 29.3431 384.849 29.6809 385.019 29.9784C385.19 30.2759 385.437 30.5221 385.735 30.6914L400.271 39.0772L395.221 41.9984C395.194 42.0129 395.163 42.0205 395.132 42.0205C395.102 42.0205 395.071 42.0129 395.044 41.9984L382.968 35.0322C380.391 33.5382 378.51 31.0838 377.739 28.2064C376.967 25.329 377.368 22.2631 378.852 19.6802V19.7392ZM420.343 29.3787L405.759 20.9102L410.798 18.0002C410.825 17.9857 410.856 17.9781 410.887 17.9781C410.918 17.9781 410.948 17.9857 410.975 18.0002L423.051 24.9784C424.898 26.0438 426.403 27.6125 427.391 29.5012C428.379 31.39 428.81 33.5209 428.633 35.6452C428.455 37.7695 427.677 39.7995 426.39 41.4983C425.102 43.197 423.357 44.4944 421.36 45.2389V31.0459C421.35 30.7036 421.25 30.3699 421.072 30.0776C420.893 29.7852 420.642 29.5446 420.343 29.3787ZM425.369 21.8209L425.014 21.6079L413.081 14.6534C412.783 14.4787 412.444 14.3866 412.099 14.3866C411.754 14.3866 411.415 14.4787 411.117 14.6534L396.522 23.0744V17.2437C396.519 17.214 396.524 17.1841 396.537 17.157C396.549 17.13 396.569 17.1068 396.593 17.0899L408.669 10.1234C410.52 9.05723 412.636 8.54003 414.77 8.63233C416.904 8.72463 418.968 9.42261 420.719 10.6446C422.471 11.8667 423.839 13.5622 424.662 15.533C425.486 17.5038 425.731 19.6683 425.37 21.7734L425.369 21.8209ZM393.766 32.1577L388.716 29.2482C388.691 29.233 388.669 29.2124 388.653 29.1879C388.637 29.1634 388.626 29.1356 388.621 29.1064V15.1857C388.624 13.0501 389.235 10.9595 390.382 9.15818C391.529 7.35689 393.165 5.9194 395.099 5.01378C397.033 4.10816 399.185 3.77183 401.303 4.04413C403.422 4.31642 405.418 5.18609 407.06 6.55143L406.705 6.75268L394.76 13.6477C394.463 13.8221 394.216 14.0708 394.044 14.3694C393.872 14.668 393.78 15.0063 393.778 15.3509L393.766 32.1577ZM396.51 26.2442L403.015 22.4947L409.532 26.2442V33.7427L403.039 37.4919L396.522 33.7427L396.51 26.2442Z" fill="white"/>
</g>
<path d="M3.76 45V17.8H12.72C15.5733 17.8 17.7067 18.52 19.12 19.96C20.56 21.4 21.28 23.32 21.28 25.72V27.84C21.28 30.24 20.56 32.1733 19.12 33.64C17.7067 35.08 15.5733 35.8 12.72 35.8H8.56V45H3.76ZM12.72 22.4H8.56V31.2H12.72C13.8933 31.2 14.7867 30.9067 15.4 30.32C16.04 29.7333 16.36 28.9067 16.36 27.84V25.72C16.36 24.68 16.04 23.8667 15.4 23.28C14.7867 22.6933 13.8933 22.4 12.72 22.4ZM42.3381 33.64V36.04C42.3381 38.8667 41.5648 41.1333 40.0181 42.84C38.4715 44.5467 36.2848 45.4 33.4581 45.4C30.6315 45.4 28.4448 44.5467 26.8981 42.84C25.3515 41.1333 24.5781 38.8667 24.5781 36.04V33.64C24.5781 30.8133 25.3381 28.56 26.8581 26.88C28.4048 25.1733 30.6048 24.32 33.4581 24.32C36.3115 24.32 38.4981 25.1733 40.0181 26.88C41.5648 28.56 42.3381 30.8133 42.3381 33.64ZM37.6181 33.64C37.6181 32.0133 37.2581 30.7467 36.5381 29.84C35.8181 28.9067 34.7915 28.44 33.4581 28.44C32.1248 28.44 31.0981 28.9067 30.3781 29.84C29.6581 30.7467 29.2981 32.0133 29.2981 33.64V36.04C29.2981 37.6667 29.6581 38.9467 30.3781 39.88C31.0981 40.8133 32.1248 41.28 33.4581 41.28C34.7915 41.28 35.8181 40.8133 36.5381 39.88C37.2581 38.9467 37.6181 37.6667 37.6181 36.04V33.64ZM72.3453 24.72L67.1453 45H62.1453L58.7853 29.76L55.2253 45H50.2253L45.0253 24.72H49.7453L51.7053 32.76L53.0653 40.08L56.5053 24.72H61.1453L64.7053 40.24L65.9853 32.8L67.9053 24.72H72.3453ZM91.6069 43.84C90.2202 44.4 88.9135 44.8 87.6869 45.04C86.4602 45.28 85.3002 45.4 84.2069 45.4C81.1935 45.4 78.9135 44.5467 77.3669 42.84C75.8202 41.1333 75.0469 38.8667 75.0469 36.04V33.64C75.0469 31.7467 75.3935 30.1067 76.0869 28.72C76.7802 27.3333 77.7669 26.2533 79.0469 25.48C80.3269 24.7067 81.8335 24.32 83.5669 24.32C84.9802 24.32 86.3002 24.6133 87.5269 25.2C88.7802 25.76 89.7935 26.6533 90.5669 27.88C91.3669 29.08 91.7669 30.6267 91.7669 32.52C91.7669 33.08 91.7269 33.68 91.6469 34.32C91.5669 34.9333 91.4335 35.5867 91.2469 36.28H79.4869C79.5402 37.9333 79.9535 39.1733 80.7269 40C81.5002 40.8267 82.7402 41.24 84.4469 41.24C85.3535 41.24 86.2869 41.1333 87.2469 40.92C88.2335 40.7067 89.2469 40.3867 90.2869 39.96L91.6069 43.84ZM83.5669 28.2C82.3402 28.2 81.3802 28.6 80.6869 29.4C80.0202 30.1733 79.6335 31.2933 79.5269 32.76H87.2069C87.2335 32.6267 87.2469 32.5067 87.2469 32.4C87.2469 32.2667 87.2469 32.1467 87.2469 32.04C87.2469 30.76 86.8869 29.8 86.1669 29.16C85.4469 28.52 84.5802 28.2 83.5669 28.2ZM108.506 28.92C107.253 28.92 106.053 29.12 104.906 29.52C103.786 29.8933 102.706 30.5067 101.666 31.36V45H97.0663V24.72H101.426V27.84C102.786 26.56 104 25.6533 105.066 25.12C106.133 24.5867 107.28 24.32 108.506 24.32V28.92ZM127.935 43.84C126.548 44.4 125.242 44.8 124.015 45.04C122.788 45.28 121.628 45.4 120.535 45.4C117.522 45.4 115.242 44.5467 113.695 42.84C112.148 41.1333 111.375 38.8667 111.375 36.04V33.64C111.375 31.7467 111.722 30.1067 112.415 28.72C113.108 27.3333 114.095 26.2533 115.375 25.48C116.655 24.7067 118.162 24.32 119.895 24.32C121.308 24.32 122.628 24.6133 123.855 25.2C125.108 25.76 126.122 26.6533 126.895 27.88C127.695 29.08 128.095 30.6267 128.095 32.52C128.095 33.08 128.055 33.68 127.975 34.32C127.895 34.9333 127.762 35.5867 127.575 36.28H115.815C115.868 37.9333 116.282 39.1733 117.055 40C117.828 40.8267 119.068 41.24 120.775 41.24C121.682 41.24 122.615 41.1333 123.575 40.92C124.562 40.7067 125.575 40.3867 126.615 39.96L127.935 43.84ZM119.895 28.2C118.668 28.2 117.708 28.6 117.015 29.4C116.348 30.1733 115.962 31.2933 115.855 32.76H123.535C123.562 32.6267 123.575 32.5067 123.575 32.4C123.575 32.2667 123.575 32.1467 123.575 32.04C123.575 30.76 123.215 29.8 122.495 29.16C121.775 28.52 120.908 28.2 119.895 28.2ZM145.274 45V42.24C144.048 43.4667 142.981 44.3067 142.074 44.76C141.194 45.1867 140.274 45.4 139.314 45.4C137.128 45.4 135.421 44.5733 134.194 42.92C132.994 41.2667 132.394 38.9467 132.394 35.96V33.8C132.394 30.8933 133.128 28.5867 134.594 26.88C136.061 25.1733 138.181 24.32 140.954 24.32C141.648 24.32 142.328 24.3867 142.994 24.52C143.688 24.6533 144.368 24.84 145.034 25.08V15.4H149.634V45H145.274ZM137.114 35.96C137.114 37.7467 137.408 39.0533 137.994 39.88C138.608 40.7067 139.461 41.12 140.554 41.12C141.168 41.12 141.821 40.9467 142.514 40.6C143.208 40.2267 144.048 39.5333 145.034 38.52V29.24C143.728 28.7067 142.528 28.44 141.434 28.44C139.888 28.44 138.781 28.92 138.114 29.88C137.448 30.84 137.114 32.1467 137.114 33.8V35.96ZM164.58 45V17.8H172.86C174.887 17.8 176.487 18.0933 177.66 18.68C178.86 19.2667 179.714 20.0933 180.22 21.16C180.754 22.2267 181.02 23.48 181.02 24.92V26.04C181.02 28.1467 180.114 29.76 178.3 30.88C179.58 31.3867 180.554 32.12 181.22 33.08C181.887 34.04 182.22 35.1867 182.22 36.52V37.64C182.22 39.1067 181.954 40.4 181.42 41.52C180.887 42.6133 180.007 43.4667 178.78 44.08C177.554 44.6933 175.914 45 173.86 45H164.58ZM172.86 22.2H169.38V29H172.86C173.927 29 174.727 28.76 175.26 28.28C175.82 27.7733 176.1 27.0933 176.1 26.24V24.92C176.1 24.0667 175.82 23.4 175.26 22.92C174.727 22.44 173.927 22.2 172.86 22.2ZM173.86 33.4H169.38V40.6H173.86C174.98 40.6 175.834 40.3333 176.42 39.8C177.007 39.2667 177.3 38.5467 177.3 37.64V36.32C177.3 35.4133 177.007 34.7067 176.42 34.2C175.834 33.6667 174.98 33.4 173.86 33.4ZM195.188 47C194.308 49.4533 193.188 51.2133 191.828 52.28C190.468 53.3733 188.601 53.92 186.228 53.92V49.32C187.641 49.2667 188.748 48.9467 189.548 48.36C190.375 47.8 190.988 47.0133 191.388 46L191.748 45.08L184.508 24.72H189.068L192.548 34.84L193.908 39.12L195.228 34.84L198.548 24.72H203.108L195.188 47ZM234.797 28.52V34.24C234.797 37.7067 233.93 40.44 232.197 42.44C230.464 44.4133 227.93 45.4 224.597 45.4C221.237 45.4 218.69 44.4133 216.957 42.44C215.25 40.44 214.397 37.7067 214.397 34.24V28.52C214.397 25.0533 215.25 22.3333 216.957 20.36C218.69 18.3867 221.237 17.4 224.597 17.4C227.93 17.4 230.464 18.3867 232.197 20.36C233.93 22.3333 234.797 25.0533 234.797 28.52ZM229.877 28.52C229.877 26.3333 229.45 24.6933 228.597 23.6C227.744 22.48 226.41 21.92 224.597 21.92C222.784 21.92 221.45 22.48 220.597 23.6C219.744 24.6933 219.317 26.3333 219.317 28.52V34.24C219.317 36.4267 219.744 38.08 220.597 39.2C221.45 40.32 222.784 40.88 224.597 40.88C226.41 40.88 227.744 40.32 228.597 39.2C229.45 38.08 229.877 36.4267 229.877 34.24V28.52ZM249.223 45.4C248.556 45.4 247.876 45.3333 247.183 45.2C246.516 45.0667 245.836 44.88 245.143 44.64V53.52H240.543V24.72H244.903V27.48C246.156 26.2267 247.223 25.3867 248.103 24.96C248.983 24.5333 249.903 24.32 250.863 24.32C253.076 24.32 254.783 25.1467 255.983 26.8C257.183 28.4533 257.783 30.7733 257.783 33.76V35.92C257.783 38.8267 257.049 41.1333 255.583 42.84C254.116 44.5467 251.996 45.4 249.223 45.4ZM249.623 28.6C249.009 28.6 248.356 28.7867 247.663 29.16C246.996 29.5067 246.156 30.1867 245.143 31.2V40.48C246.449 41.0133 247.649 41.28 248.743 41.28C250.289 41.28 251.396 40.8 252.063 39.84C252.729 38.88 253.063 37.5733 253.063 35.92V33.76C253.063 31.9733 252.756 30.6667 252.143 29.84C251.556 29.0133 250.716 28.6 249.623 28.6ZM278.521 43.84C277.134 44.4 275.828 44.8 274.601 45.04C273.374 45.28 272.214 45.4 271.121 45.4C268.108 45.4 265.828 44.5467 264.281 42.84C262.734 41.1333 261.961 38.8667 261.961 36.04V33.64C261.961 31.7467 262.308 30.1067 263.001 28.72C263.694 27.3333 264.681 26.2533 265.961 25.48C267.241 24.7067 268.748 24.32 270.481 24.32C271.894 24.32 273.214 24.6133 274.441 25.2C275.694 25.76 276.708 26.6533 277.481 27.88C278.281 29.08 278.681 30.6267 278.681 32.52C278.681 33.08 278.641 33.68 278.561 34.32C278.481 34.9333 278.348 35.5867 278.161 36.28H266.401C266.454 37.9333 266.868 39.1733 267.641 40C268.414 40.8267 269.654 41.24 271.361 41.24C272.268 41.24 273.201 41.1333 274.161 40.92C275.148 40.7067 276.161 40.3867 277.201 39.96L278.521 43.84ZM270.481 28.2C269.254 28.2 268.294 28.6 267.601 29.4C266.934 30.1733 266.548 31.2933 266.441 32.76H274.121C274.148 32.6267 274.161 32.5067 274.161 32.4C274.161 32.2667 274.161 32.1467 274.161 32.04C274.161 30.76 273.801 29.8 273.081 29.16C272.361 28.52 271.494 28.2 270.481 28.2ZM293.9 28.6C293.234 28.6 292.474 28.76 291.62 29.08C290.767 29.4 289.754 30.0267 288.58 30.96V45H283.98V24.72H288.34V27.44C289.594 26.3467 290.78 25.56 291.9 25.08C293.02 24.5733 294.154 24.32 295.3 24.32C297.247 24.32 298.727 24.9467 299.74 26.2C300.754 27.4267 301.26 29.16 301.26 31.4V45H296.66V31.96C296.66 29.72 295.74 28.6 293.9 28.6ZM330.428 45L328.748 39.68H319.428L317.748 45H312.988L322.068 17.8H326.308L335.428 45H330.428ZM322.028 31.36L320.788 35.28H327.348L326.108 31.36L324.108 24.48L322.028 31.36ZM344.771 45H339.971V17.8H344.771V45Z" fill="white"/>
<defs>
<clipPath id="clip0_101_5">
<rect width="60" height="60" fill="white" transform="translate(373)"/>
</clipPath>
</defs>
</svg>
