<svg width="100" height="100" viewBox="0 0 100 100" fill="none" xmlns="http://www.w3.org/2000/svg">
<circle cx="50" cy="50" r="50" fill="#6E8F7B"/>
<mask id="mask0_1_11" style="mask-type:alpha" maskUnits="userSpaceOnUse" x="0" y="0" width="100" height="100">
<circle cx="50" cy="50" r="50" fill="#FED18F"/>
</mask>
<g mask="url(#mask0_1_11)">
<path d="M67.9412 40.5882C67.9412 43.5724 67.6229 46.4413 67.0362 49.1176C66.9273 49.6146 66.809 50.105 66.6819 50.5882C64.1395 60.2501 58.0234 67.0588 50.8823 67.0588C45.3719 67.0588 40.4716 63.0044 37.3529 56.7133C36.3486 54.6872 35.529 52.4292 34.9333 50C34.2162 47.0756 33.8235 43.9031 33.8235 40.5882C33.8235 39.1876 33.1002 37.5183 33.2353 36.1764C33.5888 32.6647 33.2607 29.6758 34.4117 26.7647C35.5958 23.7701 35.8172 20.875 37.647 18.8235C40.4531 15.6775 47.156 14.1176 50.8823 14.1176C54.9448 14.1176 59.7172 15.1447 62.647 18.8235C66.1898 23.272 67.5197 31.0541 67.8903 38.5294C67.924 39.2088 67.9412 39.8954 67.9412 40.5882Z" fill="#FFDFC1"/>
<path d="M33.8235 40.5882C33.8235 40.5882 32.6147 39.4991 31.7647 39.7058C31.2067 39.8416 30.8681 40.0867 30.5882 40.5882C30.2523 41.19 30.3675 41.7 30.5882 42.3529C30.8237 43.0496 31.4945 43.1395 31.7647 43.8235C32.1023 44.6781 31.6061 45.2713 31.7647 46.1764C31.934 47.1431 32.1428 47.6874 32.647 48.5294C33.0249 49.1604 33.1264 49.7655 33.8235 50C34.2343 50.1381 34.9333 50 34.9333 50C34.2162 47.0756 33.8235 43.9031 33.8235 40.5882Z" fill="#FFDFC1"/>
<path d="M67.8903 38.5294C67.924 39.2088 67.9412 39.8954 67.9412 40.5882C67.9412 43.5724 67.6229 46.4413 67.0362 49.1176L67.8903 48.8235C67.8903 48.8235 68.5602 47.921 68.8235 47.3529C69.1475 46.6538 69.2821 46.3477 69.4118 45.5882C69.5484 44.7876 69.4118 43.5294 69.4118 43.5294C69.4118 43.5294 69.2231 42.2521 69.4118 41.4706C69.5925 40.7216 70 39.7058 70 39.7058C70 39.7058 70.3137 38.7163 70 38.2353C69.7738 37.8884 69.5296 37.6897 69.1176 37.647C68.5305 37.5862 67.8903 38.5294 67.8903 38.5294Z" fill="#FFDFC1"/>
<path d="M66.6819 50.5882C64.1395 60.2501 58.0234 67.0588 50.8823 67.0588C45.3719 67.0588 40.4716 63.0044 37.3529 56.7133V67.0588L36.7647 68.2353L35.2941 69.1176L33.8235 73.2353L36.7647 78.2353L43.8235 83.8235L58.5294 85.8823L69.4118 83.2353L73.5294 78.2353L67.8903 68.2353H66.1764L66.6819 50.5882Z" fill="#FFDFC1"/>
<path d="M45.8824 18.5294H50C50 18.5294 52.6858 18.2839 54.4118 18.2353C55.6748 18.1998 56.386 18.1587 57.6471 18.2353C58.6853 18.2984 59.3542 18.0842 60.2942 18.5294C60.9588 18.8443 61.4565 19.0381 61.7647 19.7059C62.0535 20.3316 61.5271 20.8237 61.7647 21.4706C61.9628 22.0097 62.2761 22.2087 62.6471 22.6471C63.1717 23.2671 63.8946 23.3367 64.1177 24.1177C64.2439 24.5594 64.0542 24.8391 64.1177 25.2941C64.2386 26.1605 64.5417 26.6079 65 27.353C65.3854 27.9794 65.8925 28.1451 66.1765 28.8235C66.5757 29.7771 66.1348 30.4377 66.1765 31.4706C66.2558 33.4351 66.0149 34.6531 66.7647 36.4706C67.1179 37.3266 67.9412 38.5294 67.9412 38.5294L68.8236 37.6471C68.8236 37.6471 68.9476 34.4167 68.8236 32.353C68.7056 30.3904 68.5209 29.2982 68.2353 27.353C67.9473 25.3912 67.8226 24.2793 67.353 22.353C66.7508 19.8827 66.6114 18.3512 65.2942 16.1765C64.0732 14.1607 63.0678 13.1708 61.1765 11.7647C59.6095 10.5997 58.6086 10.0543 56.7647 9.41178C54.4639 8.61001 53.0242 8.47278 50.5883 8.52943C48.4928 8.57816 47.3039 8.81681 45.2942 9.41178C42.7325 10.1701 41.3668 10.9112 39.1177 12.353C36.9881 13.718 35.6345 14.4463 34.1177 16.4706C32.8236 18.1976 32.3308 19.3881 31.7647 21.4706C31.0411 24.133 31.1765 25.5882 31.4706 28.5294C31.7223 31.0464 31.4471 32.4905 31.7647 35C31.9995 36.855 32.6471 40 32.6471 40L34.1177 40.8824C34.1177 40.8824 33.8782 38.6204 33.8236 37.353C33.7741 36.2054 33.8236 34.4118 33.8236 34.4118C33.8236 34.4118 33.4269 31.917 34.1177 30.5882C34.3087 30.2208 34.4957 30.0627 34.7059 29.7059C34.9667 29.2633 35.0995 29.0048 35.2942 28.5294C35.9529 26.9209 35.3552 25.7739 35.8824 24.1177C36.3498 22.6492 36.6105 21.7285 37.6471 20.5882C38.6545 19.4801 39.4616 19.003 40.8824 18.5294C42.7348 17.912 43.9298 18.5294 45.8824 18.5294Z" fill="#CEA465"/>
<path fill-rule="evenodd" clip-rule="evenodd" d="M61.7647 50.5882C61.7647 50.5882 61.0509 49.1647 60.2942 48.5294C59.5791 47.9292 58.9427 47.7686 58.1644 47.5722C57.9115 47.5083 57.6435 47.4407 57.353 47.353C56.3392 47.0468 55.7513 46.9339 54.7059 46.7647C53.4535 46.562 52.7384 46.5189 51.4706 46.4706C51.2345 46.4616 51.0244 46.4483 50.827 46.4359C50.2567 46.3999 49.7929 46.3706 49.1177 46.4706C48.0398 46.6303 46.7647 47.1079 46.1765 47.353C45.2282 47.7481 44.1177 48.2353 44.1177 48.2353C44.1177 48.2353 42.8363 49.2443 42.353 50C41.9616 50.612 41.7647 51.7647 41.7647 51.7647C41.7647 51.7647 40.4828 51.4858 39.7059 51.1765C39.6673 51.1611 39.6291 51.1459 39.5913 51.1309C38.4127 50.6623 37.6514 50.3596 36.7647 49.4118C36.0107 48.6057 35.7585 47.9577 35.3778 46.9794C35.3507 46.9096 35.3229 46.8381 35.2942 46.7647C34.9894 45.986 34.7059 44.7059 34.7059 44.7059C34.7059 44.7059 34.3558 47.9624 34.7059 50C34.9066 51.1677 35.1833 51.9151 35.53 52.8514C35.6404 53.1497 35.7579 53.4672 35.8824 53.8235C36.0182 54.2126 36.1357 54.5667 36.2462 54.9001C36.6334 56.0677 36.9356 56.9792 37.6471 58.2353C38.3658 59.5042 38.9238 60.1756 39.8063 61.2373C39.8691 61.313 39.9337 61.3906 40 61.4706C40.2647 61.7897 40.5053 62.0898 40.7335 62.3745C41.757 63.6515 42.5315 64.6177 44.1177 65.5882C45.3913 66.3676 46.2111 66.6497 47.6471 67.0588C49.7575 67.6602 51.0473 67.8135 53.2353 67.6471C54.8751 67.5223 55.8345 67.3962 57.353 66.7647C59.3257 65.9444 60.2716 65.0576 61.7647 63.5294C63.3233 61.9343 63.9982 60.816 65 58.8235C65.9302 56.9736 66.299 55.8412 66.7647 53.8235C67.1233 52.2703 67.2002 51.3125 67.3194 49.828C67.3302 49.6938 67.3413 49.5554 67.353 49.4118C67.5769 46.6642 67.353 42.353 67.353 42.353L66.1765 45.8824C66.1765 45.8824 65.6601 47.7773 65 48.8235C64.9326 48.9304 64.8699 49.0324 64.8098 49.1301C64.443 49.7263 64.1734 50.1647 63.5294 50.5882C63.0127 50.9282 62.0589 51.1765 62.0589 51.1765L61.7647 50.5882ZM58.1843 50.6369C57.8858 50.1477 57.6376 49.7411 57.0589 49.4118C55.9607 48.787 53.8236 49.4118 53.8236 49.4118H51.4706C51.4706 49.4118 49.2919 49.1371 47.9412 49.4118C47.8953 49.4211 47.85 49.4303 47.8053 49.4394C46.6695 49.6695 45.9117 49.823 45 50.5882C44.2432 51.2235 43.7768 51.6905 43.5294 52.6471C43.3569 53.3143 43.382 53.7386 43.5294 54.4118C43.7612 55.4703 44.1295 56.1195 45 56.7647C45.4127 57.0706 45.6856 57.2019 46.1765 57.353C46.3187 57.3967 46.4681 57.4489 46.62 57.5019C47.4061 57.7763 48.2591 58.074 48.5294 57.353C48.5294 57.353 48.4572 56.2193 48.5294 55.8824C48.6346 55.3918 48.8436 55.3244 49.1706 55.2189C49.3229 55.1698 49.5009 55.1123 49.7059 55C50.186 54.737 50.603 54.8917 51.056 55.0598C51.3634 55.1739 51.6874 55.2941 52.0589 55.2941C52.3464 55.2941 52.594 55.1892 52.8296 55.0894C53.1586 54.95 53.4644 54.8204 53.8236 55C53.938 55.0572 54.0855 55.1126 54.243 55.1718C54.6856 55.3379 55.207 55.5337 55.2941 55.8824C55.5216 56.7921 55.5256 56.7918 55.8245 56.7686C55.9121 56.7618 56.0251 56.7531 56.1765 56.7647C56.7722 56.8105 57.1282 56.524 57.5503 56.1842C57.6726 56.0858 57.8004 55.9829 57.9412 55.8824C58.0545 55.8014 58.1638 55.7274 58.2685 55.6564C58.7749 55.3133 59.1755 55.0419 59.4118 54.4118C59.6538 53.7665 59.5984 53.3105 59.4118 52.6471C59.2776 52.1699 59.0678 51.895 58.8131 51.5612C58.7236 51.444 58.6286 51.3195 58.5294 51.1765C58.3977 50.9865 58.288 50.8067 58.1843 50.6369Z" fill="#CEA465"/>
<path d="M35.2941 71.1765C35.5276 69.9137 36.7647 68.2353 36.7647 68.2353C36.7647 68.2353 32.2336 70.2874 29.4118 71.7647C25.3977 73.8661 23.2119 75.1799 19.4118 77.647C15.1337 80.4245 12.9564 82.3049 8.82353 85.2941C5.49123 87.7043 2.92632 88.3107 0.294117 91.4706C-1.25668 93.3322 -1.87464 94.5891 -2.94118 96.7647C-3.91762 98.7565 -5 102.059 -5 102.059L110.882 103.529C110.882 103.529 111.094 100.113 110.882 97.9412C110.561 94.6417 110.179 92.7313 108.824 89.7059C108.066 88.0156 107.515 87.1177 106.471 85.5882C104.728 83.0359 103.518 81.7232 101.176 79.7059C96.3504 75.5477 92.3409 75.1211 86.4706 72.647C78.7382 69.3882 66.1765 66.1765 66.1765 66.1765V68.2353C66.1765 68.2353 67.1459 68.3736 67.6471 69.1176C68.6837 70.6567 69.1587 71.6911 69.4118 73.5294C69.7466 75.9619 69.4698 77.5834 68.2353 79.7059C66.3729 82.9078 63.589 83.4954 60 84.4117C56.6613 85.2642 54.5703 85.0079 51.1765 84.4117C48.0639 83.865 46.2872 83.3079 43.5294 81.7647C40.9622 80.3281 37.6471 77.0588 37.6471 77.0588C37.6471 77.0588 34.8443 73.6094 35.2941 71.1765Z" fill="#565A65"/>
</g>
</svg>
