<svg width="100" height="100" viewBox="0 0 100 100" fill="none" xmlns="http://www.w3.org/2000/svg">
<mask id="mask0_78_1626" style="mask-type:alpha" maskUnits="userSpaceOnUse" x="0" y="0" width="100" height="100">
<circle cx="50" cy="50" r="50" transform="matrix(-1 0 0 1 100 0)" fill="#78AEB1"/>
</mask>
<g mask="url(#mask0_78_1626)">
<circle cx="50" cy="50" r="50" transform="matrix(-1 0 0 1 100 0)" fill="#78AEB1"/>
<path fill-rule="evenodd" clip-rule="evenodd" d="M68.2353 36.4706C68.2353 37.4681 68.1818 38.4499 68.0782 39.4118C68.0782 39.4118 68.7253 38.3015 69.4117 37.9412C69.4793 37.9057 69.5417 37.8692 69.6013 37.8342C69.8258 37.7027 70.0122 37.5935 70.2941 37.647C70.7599 37.7356 70.6988 38.1964 70.6319 38.7008V38.7008V38.7009C70.6002 38.9397 70.5672 39.1883 70.5882 39.4118C70.5882 39.4118 70.581 41.943 70.2941 43.5294C70.061 44.8181 69.8937 45.547 69.4117 46.7647C69.0336 47.7199 68.2353 49.1176 68.2353 49.1176L68.0452 49.1144C67.4702 53.9594 65.622 58.2831 62.9411 61.5332V68.8235L64.7058 71.7647L60.8823 85H39.4117L36.5932 68.8235V58.2353C35.0385 55.4115 34.0021 52.1042 33.6565 48.5299L33.6296 48.5294C33.6296 48.5294 32.9946 48.6921 32.647 48.5294C32.3045 48.3691 32.2662 48.0609 32.2238 47.7198C32.1968 47.503 32.1682 47.2728 32.0588 47.0588C31.842 46.6347 31.5887 46.3496 31.3381 46.0674C31.0688 45.7643 30.8027 45.4647 30.5882 45C30.1218 43.9895 30.0874 43.234 30.0432 42.264C30.0319 42.0161 30.0199 41.7543 30 41.4706C29.9894 41.3209 29.9786 41.1804 29.9683 41.0464C29.9076 40.2578 29.8645 39.6967 30 38.8235C30.0372 38.5835 30.036 38.3328 30.0348 38.0911C30.0319 37.5007 30.0293 36.9636 30.5882 36.7647C30.8787 36.6613 31.0838 36.6972 31.3672 36.7468C31.4005 36.7527 31.4348 36.7587 31.4706 36.7647C32.6195 36.9579 33.6296 38.8235 33.6296 38.8235C33.5634 38.0506 33.5294 37.2656 33.5294 36.4706C33.5294 24.4503 41.2986 14.7059 50.8823 14.7059C60.4661 14.7059 68.2353 24.4503 68.2353 36.4706Z" fill="#B28155"/>
<path d="M59.1176 19.4118C56.2329 18.2733 54.1898 20.1447 51.1764 19.4118C49.3734 18.9732 48.6182 17.7338 46.7646 17.6471C44.096 17.5222 42.649 18.8882 40.5882 20.5882C39.0793 21.8329 38.0251 22.5749 37.3529 24.4118C36.6818 26.2455 38.0239 27.5781 37.3529 29.4118C36.6807 31.2486 34.7243 31.3758 34.1176 33.2353C33.6188 34.764 34.1176 37.3529 34.1176 37.3529V42.6471C34.1176 42.6471 32.2677 38.9708 31.4705 36.4706C30.6151 33.7878 30.2363 32.2177 29.9999 29.4118C29.836 27.466 29.4953 26.2981 29.9999 24.4118C30.601 22.165 31.3805 20.815 33.2352 19.4118C33.2352 19.4118 38.1335 15.7091 38.5 14.5C39.1366 12.4 45 9.70588 45 9.70588C45 9.70588 48.2235 7.91332 51.1764 7.94118C54.0178 7.96798 58.2352 9.70588 58.2352 9.70588C58.2352 9.70588 63.2167 12.7298 65.8823 15.2941C68.2352 17.5576 69.9406 18.7427 71.1764 21.7647C72.3143 24.5472 72.2007 26.4089 72.0588 29.4118C71.9087 32.5851 70.5882 37.9412 70.5882 37.9412C70.5882 37.9412 69.9999 37.0588 69.1176 38.2353C68.2352 39.4118 67.647 43.5294 67.647 43.5294V39.4118C67.647 39.4118 68.1219 36.3058 67.647 34.4118C67.096 32.2144 65.2568 31.6091 64.7058 29.4118C64.2309 27.5178 65.341 26.2582 64.7058 24.4118C63.7533 21.6426 61.8415 20.4868 59.1176 19.4118Z" fill="black"/>
<path d="M45 78.5294C46.2691 79.3246 47.1461 79.5604 48.2353 80.5882C49.6257 81.9002 50.8824 84.7059 50.8824 84.7059C50.8824 84.7059 52.242 82.8496 53.2353 81.7647C55.6096 79.1715 58.2272 79.0207 60.2942 76.1765C61.7138 74.223 62.353 70.5882 62.353 70.5882L62.9412 64.4118H63.2353L64.7059 67.9412L91.4706 81.7647C91.4706 81.7647 94.2397 82.4149 95.5883 83.5294C96.4045 84.204 97.353 85.5882 97.353 85.5882L104.412 100.588H-3.82349C-3.82349 100.588 -2.79358 97.1674 -2.05878 95C-0.716386 91.0404 -0.928064 88.1983 1.76475 85C3.61418 82.8034 5.23957 82.1533 7.6471 80.5882C12.3422 77.5362 20.5883 74.4118 20.5883 74.4118L33.8236 67.6471L36.4706 64.4118C36.4706 64.4118 36.4457 66.476 36.4706 67.6471C36.507 69.3542 36.6165 69.9301 37.353 71.4706C38.1092 73.0524 38.5127 74.0095 39.7059 75.2941C41.3549 77.0694 42.9469 77.2428 45 78.5294Z" fill="black"/>
</g>
</svg>
