<svg width="100" height="100" viewBox="0 0 100 100" fill="none" xmlns="http://www.w3.org/2000/svg">
<mask id="mask0_1_68" style="mask-type:alpha" maskUnits="userSpaceOnUse" x="0" y="0" width="100" height="100">
<circle cx="50" cy="50" r="50" fill="#D9D9D9"/>
</mask>
<g mask="url(#mask0_1_68)">
<path d="M76.4706 49.4118C76.4706 53.297 76.4232 57.0489 75.9749 60.5882C75.6213 63.3806 75.0182 66.0406 73.9922 68.5294C73.4469 69.8521 72.8467 71.1265 72.196 72.3467C71.6511 73.3683 71.0708 74.3519 70.4575 75.2941C68.8565 77.7536 67.0309 79.9308 65.0249 81.7647C60.5529 85.8531 55.1847 88.2353 49.4118 88.2353C43.3673 88.2353 37.7665 85.6237 33.1735 81.1765C31.4122 79.471 29.7991 77.4957 28.3661 75.2941C28.2286 75.0829 28.0928 74.8696 27.9586 74.6542C26.622 72.5086 25.4528 70.1602 24.4786 67.647C23.9994 66.4109 23.6586 65.1348 23.4181 63.8235C22.6008 59.3676 22.9412 54.5042 22.9412 49.4118C22.9412 47.8189 23.0012 46.2485 23.1187 44.7059C24.5832 25.4835 34.9763 10.5882 49.4118 10.5882C63.0555 10.5882 73.5384 23.8944 75.947 41.5838C76.2913 44.1123 76.4706 46.7303 76.4706 49.4118Z" fill="#C18D77"/>
<path d="M72.196 72.3467C71.6511 73.3683 71.0708 74.3519 70.4575 75.2941C68.8565 77.7536 67.0309 79.9308 65.0249 81.7647C60.5529 85.8531 55.1847 88.2353 49.4118 88.2353C43.3673 88.2353 37.7665 85.6237 33.1735 81.1765C31.4122 79.471 29.7991 77.4957 28.3661 75.2941C28.2286 75.0829 28.0928 74.8696 27.9586 74.6542C28.0349 75.1524 28.169 76.3073 27.9175 77.0588C27.7065 77.6895 27.5355 78.0656 27.0588 78.5294C26.2956 79.2721 25.7218 79.1176 24.4786 79.4118C23.2353 79.7059 19.8968 80.2727 17.0588 81.1765C12.3578 82.6735 5.58826 86.4706 5.58826 86.4706V123.824H94.1177V84.4118C94.1177 84.4118 88.9702 80.8858 85.2941 79.4118C81.9841 78.0845 77.6471 77.3529 76.4706 77.0588C75.2941 76.7647 73.2353 76.4706 72.6471 76.1765C72.0588 75.8823 72.0588 74.4118 72.0588 74.4118L72.196 72.3467Z" fill="#C18D77"/>
<path d="M22.9412 49.4118C22.9412 47.8189 23.0012 46.2485 23.1187 44.7059C23.1187 44.7059 22.7118 44.2335 22.353 44.1176C22.025 44.0118 21.7955 44.003 21.4706 44.1176C20.9291 44.3088 20.5669 44.7887 20.2941 45.2941C19.7911 46.226 19.7059 46.8822 19.7059 47.9412C19.7059 48.8235 19.8282 49.2145 20 50C20.1322 50.6042 20.2891 50.9292 20.5883 51.4706C20.7886 51.833 20.9827 51.9869 21.1765 52.3529C21.7246 53.3882 21.6792 54.1259 21.7647 55.2941C21.815 55.9814 21.7647 57.0588 21.7647 57.0588C21.7647 57.0588 21.9534 58.3361 21.7647 59.1176C21.5839 59.8666 20.8824 60.8823 20.8824 60.8823C20.8824 60.8823 20.3125 62.1772 20.5883 62.9412C20.7289 63.3307 21.1765 63.8235 21.1765 63.8235C21.1765 63.8235 21.8445 64.3391 22.353 64.4118C22.5804 64.4442 22.7283 64.498 22.9412 64.4118C23.2153 64.3007 23.4181 63.8235 23.4181 63.8235C22.6008 59.3676 22.9412 54.5042 22.9412 49.4118Z" fill="#C18D77"/>
<path d="M75.947 41.5838C76.2913 44.1123 76.4706 46.7303 76.4706 49.4118C76.4706 53.297 76.4232 57.0489 75.9749 60.5882L76.7647 61.1765C77.028 61.3725 77.7125 61.4141 78.2353 61.1765C78.6789 60.9748 78.9367 60.7466 79.1177 60.2941C79.2883 59.8675 79.1177 59.1176 79.1177 59.1176L78.5294 57.9412C78.5294 57.9412 78.0359 57.2696 77.9412 56.7647C77.8777 56.426 77.9412 55.8823 77.9412 55.8823L78.2353 54.1176C78.2353 54.1176 78.4013 53.0397 78.5294 52.3529C78.8105 50.8465 79.1506 50.0394 79.4118 48.5294C79.5502 47.7291 79.6582 47.2814 79.7059 46.4706C79.7871 45.0899 79.4118 42.9412 79.4118 42.9412C79.4118 42.9412 79.4118 41.7647 79.1177 41.1765C78.8236 40.5882 78.5087 40.3819 77.9412 40.2941C77.4732 40.2217 77.1675 40.339 76.7647 40.5882C76.3369 40.853 75.947 41.5838 75.947 41.5838Z" fill="#C18D77"/>
<path fill-rule="evenodd" clip-rule="evenodd" d="M62.3529 65.2941C61.3111 64.2557 59.4118 62.9412 59.4118 62.9412C59.4118 62.9412 56.5515 60.8683 54.4118 60.5882C53.5007 60.469 52.9057 60.2317 52.0588 60.5882C51.5295 60.8111 51.314 61.0918 50.8824 61.4706C50.5161 61.792 50 62.3529 50 62.3529H49.4118C48.7482 62.2625 48.5155 61.8152 47.9412 61.4706C47.3669 61.126 47.1384 60.6396 46.4706 60.5882C45.7024 60.5291 43.6194 61.1049 42.9412 61.4706C41.2586 62.378 40.953 62.3985 39.4118 63.5294C38.0956 64.4952 38.0482 64.8779 37.0588 66.1765C36.4976 66.9131 36.1068 67.9251 35.8824 68.8235C35.6026 69.9434 36.2006 70.6424 36.4706 71.7647C36.6405 72.471 37.1015 72.8042 37.0588 73.5294C37.0136 74.2986 36.6311 74.672 36.1765 75.2941C35.5517 76.1491 34.888 76.3322 34.1177 77.0588C33.645 77.5047 32.9412 78.2353 32.9412 78.2353C32.9412 78.2353 33.9266 79.7445 34.7059 80.5882C36.8043 82.8602 38.6391 83.4619 41.4706 84.7059C43.9988 85.8167 45.5072 86.3369 48.2353 86.7647C50.0544 87.05 51.1094 87.2458 52.9412 87.0588C54.7151 86.8778 55.7407 86.644 57.3529 85.8824C59.494 84.871 60.4831 84.1204 62.0588 82.3529C63.4368 80.8073 64.6161 79.7694 65.5882 77.9412C66.4096 76.3965 67.6471 74.1177 67.6471 74.1177L65.2941 72.3529L64.1177 70.5882L64.4118 68.8235L64.1177 67.3529C64.1177 67.3529 63.103 66.0417 62.3529 65.2941ZM55.2941 65.5882C57.0703 65.7457 57.5892 65.9824 59.7059 66.7647C60.2861 66.9791 61.4706 68.2353 61.4706 68.2353C61.4706 68.2353 62.0588 69.7198 62.0588 70.2941C62.0588 71.9022 62.2609 71.9999 61.7647 73.5294C61.0875 75.6167 57.9412 78.2353 57.9412 78.2353C57.9412 78.2353 53.8675 80.5022 50.8824 80.5882C47.8317 80.6762 43.5294 77.9412 43.5294 77.9412C43.5294 77.9412 41.6193 76.2552 40.5882 75C39.5368 73.72 38.2353 71.4706 38.2353 71.4706C38.2353 71.4706 37.8542 70.3991 37.9412 69.7059C38.1134 68.3336 39.1873 67.8882 40.2941 67.0588C41.9513 65.8172 45.2941 65.2941 45.2941 65.2941C45.2941 65.2941 46.4706 65 47.6471 65.5882C48.4753 66.0024 48.7933 66.6077 49.7059 66.7647C50.1587 66.8426 50.7214 66.8282 51.1765 66.7647C52.0428 66.6438 52.0803 65.7432 52.9412 65.5882C53.6194 65.4662 54.3788 65.5071 55.2941 65.5882Z" fill="#1E1E1E"/>
<path d="M50.8824 71.1765C50.8824 71.1765 49.0909 70.7788 47.9412 70.8824C46.9978 70.9673 46.3873 70.9621 45.5882 71.4706C45.0401 71.8194 44.4118 72.6471 44.4118 72.6471C44.4118 72.6471 45.2592 73.433 45.8824 73.8235C47.0215 74.5375 47.804 74.7139 49.1177 75C50.1339 75.2213 51.7647 75.2941 51.7647 75.2941C51.7647 75.2941 53.6304 74.729 54.7059 74.1177C55.7044 73.55 57.0588 72.3529 57.0588 72.3529C57.0588 72.3529 56.6283 71.5309 56.1765 71.1765C55.5186 70.6604 54.9498 70.6704 54.1177 70.5882C52.8397 70.462 50.8824 71.1765 50.8824 71.1765Z" fill="#1E1E1E"/>
<path d="M76.1765 53.8235C76.1765 53.8235 74.9481 49.7358 74.4118 47.0588C73.9554 44.7812 73.8132 43.482 73.5294 41.1765C73.4023 40.1442 73.5693 39.5144 73.2353 38.5294C72.9379 37.6524 72.5647 37.2462 72.0588 36.4706C70.9903 34.8322 69.5928 34.4455 68.8235 32.6471C68.4947 31.8782 68.4054 31.4069 68.2353 30.5882C67.954 29.2341 67.9308 28.4419 67.9412 27.0588C67.9507 25.7902 68.4415 25.0753 68.2353 23.8235C68.0758 22.8552 67.8591 22.3114 67.3529 21.4706C66.6827 20.3573 65.2941 18.8235 65.2941 18.8235C65.2941 18.8235 63.448 17.2117 61.7647 16.1765C61.7647 16.1765 59.7059 15 59.4118 15C58.9382 14.9963 58.0601 15.0624 57.6471 15.2941C57.2221 15.5325 55.5882 16.7647 55.5882 16.7647C55.5882 16.7647 54.189 17.4156 53.2353 17.6471L50.8824 17.9412C50.8824 17.9412 49.2748 18.2001 48.2353 18.2353C46.7386 18.286 45.2941 17.9412 44.4118 17.6471C43.2754 17.363 42.6261 17.2508 41.4706 17.0588C40.6694 16.9257 40.2238 16.779 39.4118 16.7647C38.4859 16.7485 37.9224 16.7245 37.0588 17.0588C36.2864 17.3578 35.6892 17.7759 35 18.2353C33.9663 18.9245 32.6471 20 32.6471 20C32.6471 20 31.4106 20.9457 30.8824 21.7647C30.3504 22.5894 30.3231 23.191 30 24.1176C29.4856 25.5928 29.0085 26.3899 28.8235 27.9412C28.7012 28.9677 28.7868 29.5551 28.8235 30.5882C28.8727 31.9705 28.7235 32.7919 29.1176 34.1176C29.2939 34.7105 29.7059 35.5882 29.7059 35.5882C29.7059 35.5882 28.845 36.6949 28.2353 37.3529C27.7937 37.8295 27.4777 38.0327 27.0588 38.5294C26.3603 39.3578 26.0503 39.9022 25.5882 40.8824C25.1236 41.868 24.9717 42.4727 24.7059 43.5294C23.9769 46.4277 24.4118 51.1765 24.4118 51.1765C24.4118 51.1765 23.5704 47.5927 23.2353 45.2941C23.001 43.6867 22.9412 42.3529 22.9412 41.1765C22.9412 35.1993 22.2851 31.7285 23.5294 25.8824C23.9761 23.7836 24.1177 22.5442 25 20.5882C26.3794 17.5303 27.8863 16.1593 30.2941 13.8235C32.652 11.5362 34.2421 10.5141 37.0588 8.82353C39.7899 7.18442 41.2585 5.74376 44.4118 5.29412C45.89 5.08333 46.7444 5.21129 48.2353 5.29412C50.0845 5.39685 51.1423 5.44163 52.9412 5.88236C55.49 6.50684 59.1176 8.52941 59.1176 8.52941C59.1176 8.52941 64.1004 10.9916 66.4706 13.5294C68.3407 15.5318 68.9137 17.0451 70.2941 19.4118C71.5366 21.5421 72.3019 22.7173 73.2353 25C74.7538 28.7134 75.5882 35 75.5882 35L76.1765 53.8235Z" fill="#1E1E1E"/>
<path d="M72.9411 76.1765C72.9411 76.1765 73.3871 77.9733 73.2352 79.1176C73.0725 80.344 72.6491 80.9717 72.0588 82.0588C70.9709 84.0624 69.9805 85.0036 68.2352 86.4706C66.0318 88.3226 64.3702 88.7767 61.7647 90C57.3584 92.0687 49.9999 94.1176 49.9999 94.1176C49.9999 94.1176 41.1486 93.3352 36.1764 90.8824C34.3745 89.9935 33.3734 89.439 31.7647 88.2353C30.1376 87.0179 29.2416 86.2673 27.9411 84.7059C26.7177 83.237 25.8302 82.4232 25.2941 80.5882C25.1298 80.0261 24.9999 79.1176 24.9999 79.1176C24.9999 79.1176 19.3053 79.9085 15.8823 81.1765C13.6179 82.0153 10.2941 83.8235 10.2941 83.8235L5.29407 86.7647L5.58819 123.824H94.4117L94.1176 84.4118C94.1176 84.4118 92.0404 82.6917 90.5882 81.7647C89.1587 80.8522 88.3194 80.3831 86.7646 79.7059C85.0996 78.9806 82.3529 78.2353 82.3529 78.2353C82.3529 78.2353 79.3134 77.4831 77.3529 77.0588C75.6356 76.6872 72.9411 76.1765 72.9411 76.1765Z" fill="#651B34"/>
</g>
</svg>
