<svg width="100" height="100" viewBox="0 0 100 100" fill="none" xmlns="http://www.w3.org/2000/svg">
<circle cx="50" cy="50" r="50" fill="#F8A0A0"/>
<mask id="mask0_1_86" style="mask-type:alpha" maskUnits="userSpaceOnUse" x="0" y="0" width="100" height="100">
<circle cx="50" cy="50" r="50" fill="#D9D9D9"/>
</mask>
<g mask="url(#mask0_1_86)">
<path d="M42.369 52.8608L32.6631 32.8608L30.5883 32.0588L28.2353 33.2353C28.2353 33.2353 27.62 40.195 27.9412 46.3902C28.0845 49.1527 27.9572 47.2726 28.2513 52.8608C28.3188 54.1432 28.3612 56.3477 27.9572 57.5667C27.3251 59.4739 26.3372 60.2516 25.3101 61.9785C21.7854 67.9049 16.4866 77.2726 16.4866 77.2726C16.4866 77.2726 13.4801 82.4595 12.369 86.0961C11.7501 88.1216 11.319 89.2761 11.1925 91.3902C11.0614 93.5807 11.7807 96.9785 11.7807 96.9785L12.5026 101.096H23.2513L22.9572 82.2726L26.4866 74.0373L47.0748 66.6844V56.3902L42.369 52.8608Z" fill="black"/>
<path d="M66.4866 31.6844L72.0589 31.0242C72.0589 31.0242 71.7248 35.4062 71.4866 38.1549C71.2566 40.8092 70.7503 42.2595 70.6042 44.9196C70.4972 46.8693 70.4017 47.9776 70.6042 49.9196C70.7865 51.6672 71.4866 54.3314 71.4866 54.3314C71.4866 54.3314 72.2079 57.2637 72.9572 59.0373C74.4077 62.4707 76.2205 63.8531 78.2513 66.9785C79.8832 69.49 81.0791 70.907 82.6631 73.4491C83.5902 74.9371 83.5454 74.9196 85.016 76.9785C85.8605 78.1607 86.4866 79.9196 86.4866 79.9196C86.4866 79.9196 86.7807 81.4181 86.7807 82.5667C86.7807 83.7153 86.7807 84.6255 85.8984 88.1549C85.016 91.6844 84.8803 91.5186 84.7219 93.7432C84.5748 95.8086 84.6358 97.0018 85.016 99.0373C85.2565 100.325 85.8984 102.273 85.8984 102.273H78.8395L79.4278 84.6255L73.8395 76.3902L61.7807 69.3314L55.8984 64.3314V55.802L62.9572 44.0373L66.4866 31.6844Z" fill="black"/>
<path d="M66.7648 34.0373C66.5462 36.7703 66.165 39.4627 65.5458 41.9785C64.499 46.2313 62.7721 49.9795 60.0001 52.5667C59.0537 53.45 58.1983 54.2802 57.353 55.0255C55.3837 56.762 53.4694 58.0375 50.5883 58.4491C49.2194 58.084 47.9576 57.6057 46.7648 57.0229C44.1135 55.7274 41.8026 53.9157 39.4119 51.6844C37.0781 49.5062 35.5674 46.8343 34.5314 43.6685C33.6089 40.8496 33.0628 37.6392 32.6471 34.0373C32.6471 33.6429 32.6538 33.2506 32.6671 32.8608C33.1011 20.0874 40.5636 9.91965 49.706 9.91965C58.7075 9.91965 66.0807 19.7767 66.7198 32.2726C66.7496 32.8553 66.7648 33.4438 66.7648 34.0373Z" fill="#DBAE7F"/>
<path d="M32.6471 34.0373C32.6471 33.6429 32.6538 33.2506 32.6671 32.8608C32.6671 32.8608 31.8011 32.5304 31.4707 32.8608C30.2942 34.0373 30.3705 34.7563 30.2942 35.2138C30.1721 35.9466 30.083 37.8532 30.2942 39.3314C30.4794 40.6279 30.7565 41.3064 31.1766 42.5667C31.4707 43.4491 32.353 44.0373 32.353 44.0373C32.353 44.0373 33.2354 44.6255 34.1177 44.3314C34.4072 44.2349 34.5314 43.6685 34.5314 43.6685C33.6089 40.8496 33.0628 37.6392 32.6471 34.0373Z" fill="#DBAE7F"/>
<path d="M66.7198 32.2726C66.7496 32.8553 66.7648 33.4438 66.7648 34.0373C66.5462 36.7703 66.165 39.4627 65.5458 41.9785C65.5458 41.9785 66.1952 42.4996 66.7648 42.5667C67.445 42.6468 68.5295 41.9785 68.5295 41.9785C68.5295 41.9785 70.1247 40.6345 70.5883 39.3314C71.0903 37.9205 70.7015 36.2591 70.2942 34.9196L70.2812 34.8768C69.7777 33.2207 69.3993 31.976 67.9413 31.6844C67.4221 31.5805 66.7198 32.2726 66.7198 32.2726Z" fill="#DBAE7F"/>
<path d="M50.5883 58.4491C49.2194 58.084 47.9576 57.6057 46.7648 57.0229C46.7648 57.0229 47.5818 60.3923 46.7648 62.2726C46.4979 62.8869 46.264 63.1928 45.8824 63.7432C43.3334 67.4196 40.5883 68.1549 35.8824 69.6255C31.6068 70.9617 28.4052 70.5201 25.2942 73.7432C24.2092 74.8672 23.6289 75.5757 22.9413 76.9785C21.9596 78.981 21.8426 80.3379 21.7648 82.5667C21.6962 84.5316 22.353 87.5667 22.353 87.5667L22.9413 93.7432L23.5295 101.096L79.4118 102.273C79.4118 102.273 80.6196 97.4744 80.8824 94.3314C81.1026 91.6988 81.217 90.2107 81.1765 87.5667C81.1466 85.6109 80.8824 81.7647 80.8824 81.7647C80.8824 81.7647 80.6138 80.4786 80.2942 79.7059C79.8698 78.6799 79.4638 78.0761 78.8236 77.2726C77.9499 76.1761 75.8824 75.2138 75.8824 75.2138L67.353 70.802C67.353 70.802 61.6844 68.1885 58.8236 65.5079C58.3495 65.0636 58.2453 64.9057 57.9412 64.3314C57.6144 63.7139 57.4461 63.2592 57.353 62.5667C56.9609 59.6479 57.353 55.0255 57.353 55.0255C55.3837 56.762 53.4694 58.0375 50.5883 58.4491Z" fill="#DBAE7F"/>
<path d="M60 46.7647C60 46.7647 59.4791 44.8727 58.8236 43.8235C57.521 41.7389 55.7344 41.5463 53.8236 40C52.3031 38.7695 51.2553 38.2648 50 36.7647C49.2027 35.8119 48.8846 35.1769 48.2353 34.1176C47.2149 32.4529 46.5308 31.5477 45.8824 29.7059C45.3363 28.1547 45 25.5882 45 25.5882V15.8824C45 15.8824 45.2942 16.1765 45 16.7647C44.7059 17.3529 44.7059 17.6471 44.1177 18.8235C43.419 20.2209 42.9499 21.0697 42.0589 22.3529C40.7324 24.2633 38.5294 27.0588 38.5294 27.0588L36.1765 29.7059L32.7924 33.0215C32.7924 33.0215 32.2042 32.7274 31.9101 32.7274C31.616 32.7274 28.2353 33.2353 28.2353 33.2353C28.2353 33.2353 28.1947 27.2637 28.5294 24.4118C28.7894 22.1968 29.7059 18.8235 29.7059 18.8235C29.7059 18.8235 30.9368 14.5521 32.6471 12.4333C33.9234 10.8521 34.9407 10.0133 36.7647 9.11765C38.5445 8.24371 40.5883 7.94118 41.7647 7.94118C42.9412 7.94118 46.4706 8.2353 46.4706 8.2353C46.4706 8.2353 47.7219 6.70296 48.8236 6.17647C50.5853 5.3345 51.8915 5.23367 53.8236 5.5163C55.7556 5.79892 57.7259 6.43806 60 7.57512C62.353 8.75159 63.7873 10.4801 65 11.6928C65.8824 12.5751 68.5294 17.5751 68.5294 17.5751C68.5294 17.5751 70.1264 21.6775 70.8824 24.4118C71.597 26.9962 72.0588 31.1045 72.0588 31.1045L66.9101 31.8451L66.4706 37.6471C66.4706 37.6471 65.8486 35.8118 65.2942 34.7059C64.623 33.3671 64.1807 32.632 63.2353 31.4706C62.0549 30.0205 59.7059 28.2353 59.7059 28.2353C59.7059 28.2353 57.1612 26.0387 55.2942 25C54.0814 24.3252 52.0589 23.5294 52.0589 23.5294C52.0589 23.5294 50.9502 22.8585 50.2942 22.3529C48.6845 21.1126 46.7647 18.5294 46.7647 18.5294C46.7647 18.5294 46.6208 23.3983 47.0588 26.4706C47.1575 27.1623 47.0588 26.4706 47.353 28.2353C47.5692 29.5327 47.6646 29.8466 48.2353 30.8824C48.9299 32.1429 49.7274 32.9643 50.5883 34.1176C51.4628 35.2892 53.2353 36.7647 53.2353 36.7647C53.2353 36.7647 54.8486 38.378 55.8824 39.4118C56.6864 40.2158 57.9412 41.4706 57.9412 41.4706C57.9412 41.4706 58.9904 42.4433 59.4118 43.2353C60.0682 44.4689 60 46.7647 60 46.7647Z" fill="black"/>
<path d="M42.6471 75.8824C40.6938 73.4846 39.7059 68.5294 39.7059 68.5294L29.7059 70.8824C29.7059 70.8824 31.4736 72.5529 32.353 73.8235C33.6405 75.6839 34.3632 76.9467 35.0001 79.1177C35.6539 81.3466 35.7812 82.6851 35.5883 85C35.4192 87.0283 34.7445 88.0636 34.1177 90C33.2896 92.5581 31.7648 96.4706 31.7648 96.4706L34.1177 100.294L58.2353 103.235L72.353 95C72.353 95 70.588 92.0257 69.7059 90C68.8792 88.1015 68.3089 87.0378 67.9412 85C67.5333 82.7393 67.5961 81.3888 67.9412 79.1177C68.3614 76.3524 70.2942 72.3529 70.2942 72.3529L62.9412 68.2353C62.9412 68.2353 61.7648 73.2353 60.2942 75.8824C59.0708 78.0844 57.9387 79.3879 55.5883 80.2941C53.3377 81.1618 51.4552 81.4776 49.1177 80.8824C46.0922 80.1119 44.6681 78.3635 42.7074 75.9564L42.6471 75.8824Z" fill="#785757"/>
</g>
</svg>
