<svg width="200" height="200" viewBox="0 0 200 200" fill="none" xmlns="http://www.w3.org/2000/svg">
<circle cx="100" cy="100" r="100" fill="#6E8F7B"/>
<mask id="mask0_43_1472" style="mask-type:alpha" maskUnits="userSpaceOnUse" x="0" y="0" width="200" height="200">
<circle cx="100" cy="100" r="100" fill="#FED18F"/>
</mask>
<g mask="url(#mask0_43_1472)">
<path d="M135.882 81.1764C135.882 87.1449 135.246 92.8826 134.072 98.2352C133.855 99.2292 133.618 100.21 133.364 101.176C128.279 120.5 116.047 134.118 101.765 134.118C90.7437 134.118 80.9433 126.009 74.7058 113.427C72.6972 109.374 71.058 104.858 69.8666 99.9999C68.4324 94.1512 67.647 87.8061 67.647 81.1764C67.647 78.3752 66.2004 75.0365 66.4706 72.3529C67.1775 65.3293 66.5214 59.3515 68.8235 53.5293C71.1915 47.5403 71.6344 41.7501 75.2941 37.647C80.9062 31.355 94.3119 28.2352 101.765 28.2352C109.89 28.2352 119.434 30.2893 125.294 37.647C132.38 46.544 135.039 62.1083 135.781 77.0588C135.848 78.4176 135.882 79.7908 135.882 81.1764Z" fill="white"/>
<path d="M67.647 81.1764C67.647 81.1764 65.2293 78.9982 63.5294 79.4117C62.4133 79.6832 61.7362 80.1734 61.1764 81.1764C60.5047 82.3799 60.7351 83.4001 61.1764 84.7058C61.6475 86.0993 62.9889 86.279 63.5294 87.647C64.2046 89.3562 63.2123 90.5427 63.5294 92.3529C63.8681 94.2862 64.2857 95.3749 65.2941 97.0588C66.0498 98.3207 66.2528 99.531 67.647 99.9999C68.4686 100.276 69.8666 99.9999 69.8666 99.9999C68.4324 94.1512 67.647 87.8061 67.647 81.1764Z" fill="white"/>
<path d="M135.781 77.0588C135.848 78.4176 135.882 79.7908 135.882 81.1764C135.882 87.1449 135.246 92.8826 134.072 98.2352L135.781 97.647C135.781 97.647 137.12 95.8421 137.647 94.7058C138.295 93.3077 138.564 92.6954 138.823 91.1764C139.097 89.5752 138.823 87.0588 138.823 87.0588C138.823 87.0588 138.446 84.5043 138.823 82.9411C139.185 81.4431 140 79.4117 140 79.4117C140 79.4117 140.627 77.4326 140 76.4705C139.548 75.7768 139.059 75.3794 138.235 75.2941C137.061 75.1724 135.781 77.0588 135.781 77.0588Z" fill="white"/>
<path d="M133.364 101.176C128.279 120.5 116.047 134.118 101.765 134.118C90.7437 134.118 80.9433 126.009 74.7058 113.427V134.118L73.5294 136.471L70.5882 138.235L67.647 146.471L73.5294 156.471L87.647 167.647L117.059 171.765L138.823 166.471L147.059 156.471L135.781 136.471H132.353L133.364 101.176Z" fill="white"/>
<path d="M91.7648 37.0589H100C100 37.0589 105.372 36.5677 108.824 36.4706C111.35 36.3996 112.772 36.3173 115.294 36.4706C117.371 36.5968 118.708 36.1683 120.588 37.0589C121.918 37.6885 122.913 38.0763 123.529 39.4118C124.107 40.6633 123.054 41.6474 123.529 42.9412C123.926 44.0194 124.552 44.4173 125.294 45.2941C126.343 46.5342 127.789 46.6735 128.235 48.2353C128.488 49.1188 128.108 49.6782 128.235 50.5883C128.477 52.321 129.083 53.2158 130 54.7059C130.771 55.9587 131.785 56.2902 132.353 57.6471C133.151 59.5542 132.27 60.8754 132.353 62.9412C132.512 66.8702 132.03 69.3062 133.529 72.9412C134.236 74.6533 135.882 77.0588 135.882 77.0588L137.647 75.2941C137.647 75.2941 137.895 68.8334 137.647 64.7059C137.411 60.7808 137.042 58.5964 136.471 54.7059C135.895 50.7824 135.645 48.5587 134.706 44.7059C133.502 39.7655 133.223 36.7024 130.588 32.353C128.146 28.3214 126.136 26.3417 122.353 23.5294C119.219 21.1994 117.217 20.1086 113.529 18.8236C108.928 17.22 106.048 16.9456 101.177 17.0589C96.9857 17.1563 94.6079 17.6336 90.5883 18.8236C85.4649 20.3403 82.7337 21.8225 78.2354 24.7059C73.9762 27.4361 71.269 28.8926 68.2354 32.9412C65.6473 36.3952 64.6616 38.7763 63.5295 42.9412C62.0821 48.2661 62.353 51.1765 62.9412 57.0588C63.4446 62.0928 62.8943 64.981 63.5295 70C63.999 73.71 65.2942 80 65.2942 80L68.2354 81.7647C68.2354 81.7647 67.7564 77.2409 67.6471 74.7059C67.5482 72.4108 67.6471 68.8236 67.6471 68.8236C67.6471 68.8236 66.8538 63.834 68.2354 61.1765C68.6174 60.4416 68.9913 60.1254 69.4118 59.4118C69.9334 58.5267 70.199 58.0096 70.5883 57.0588C71.9058 53.8419 70.7104 51.5479 71.7648 48.2353C72.6995 45.2985 73.221 43.457 75.2942 41.1765C77.309 38.9602 78.9233 38.006 81.7648 37.0589C85.4696 35.8239 87.8595 37.0589 91.7648 37.0589Z" fill="white"/>
<path fill-rule="evenodd" clip-rule="evenodd" d="M123.529 101.176C123.529 101.176 122.102 98.3293 120.588 97.0588C119.158 95.8584 117.885 95.5372 116.329 95.1443C115.823 95.0166 115.287 94.8814 114.706 94.7059C112.678 94.0936 111.503 93.8678 109.412 93.5294C106.907 93.1241 105.477 93.0378 102.941 92.9412C102.469 92.9232 102.049 92.8967 101.654 92.8717C100.513 92.7997 99.5859 92.7411 98.2354 92.9412C96.0796 93.2606 93.5295 94.2157 92.353 94.7059C90.4564 95.4962 88.2354 96.4706 88.2354 96.4706C88.2354 96.4706 85.6727 98.4886 84.706 100C83.9231 101.224 83.5295 103.529 83.5295 103.529C83.5295 103.529 80.9656 102.972 79.4118 102.353C79.3345 102.322 79.2581 102.292 79.1826 102.262C76.8255 101.325 75.3028 100.719 73.5295 98.8236C72.0214 97.2114 71.517 95.9153 70.7557 93.9588C70.7014 93.8192 70.6457 93.6762 70.5883 93.5294C69.9789 91.972 69.4118 89.4118 69.4118 89.4118C69.4118 89.4118 68.7116 95.9248 69.4118 100C69.8131 102.335 70.3666 103.83 71.0599 105.703C71.2808 106.299 71.5159 106.934 71.7648 107.647C72.0365 108.425 72.2714 109.133 72.4924 109.8C73.2668 112.135 73.8713 113.958 75.2942 116.471C76.7317 119.008 77.8476 120.351 79.6125 122.475C79.7383 122.626 79.8674 122.781 80.0001 122.941C80.5295 123.579 81.0107 124.18 81.4671 124.749C83.5141 127.303 85.0631 129.235 88.2354 131.176C90.7827 132.735 92.4221 133.299 95.2942 134.118C99.515 135.32 102.095 135.627 106.471 135.294C109.75 135.045 111.669 134.792 114.706 133.529C118.651 131.889 120.543 130.115 123.529 127.059C126.647 123.869 127.996 121.632 130 117.647C131.86 113.947 132.598 111.682 133.529 107.647C134.247 104.541 134.4 102.625 134.639 99.656C134.66 99.3877 134.683 99.1107 134.706 98.8236C135.154 93.3285 134.706 84.7059 134.706 84.7059L132.353 91.7647C132.353 91.7647 131.32 95.5546 130 97.6471C129.865 97.8608 129.74 98.0648 129.62 98.2602C128.886 99.4527 128.347 100.329 127.059 101.176C126.025 101.856 124.118 102.353 124.118 102.353L123.529 101.176ZM116.369 101.274C115.772 100.295 115.275 99.4821 114.118 98.8236C111.921 97.5739 107.647 98.8236 107.647 98.8236H102.941C102.941 98.8236 98.5838 98.2741 95.8824 98.8236C95.7906 98.8422 95.7 98.8606 95.6106 98.8787C93.339 99.339 91.8233 99.6461 90.0001 101.176C88.4865 102.447 87.5537 103.381 87.0589 105.294C86.7138 106.629 86.7641 107.477 87.0589 108.824C87.5225 110.941 88.259 112.239 90.0001 113.529C90.8254 114.141 91.3711 114.404 92.353 114.706C92.6375 114.793 92.9363 114.898 93.2401 115.004C94.8123 115.553 96.5181 116.148 97.0589 114.706C97.0589 114.706 96.9145 112.439 97.0589 111.765C97.2691 110.784 97.6872 110.649 98.3411 110.438C98.6458 110.34 99.0018 110.225 99.4118 110C100.372 109.474 101.206 109.783 102.112 110.12C102.727 110.348 103.375 110.588 104.118 110.588C104.693 110.588 105.188 110.378 105.659 110.179C106.317 109.9 106.929 109.641 107.647 110C107.876 110.114 108.171 110.225 108.486 110.344C109.371 110.676 110.414 111.067 110.588 111.765C111.043 113.584 111.051 113.584 111.649 113.537C111.824 113.524 112.05 113.506 112.353 113.529C113.544 113.621 114.256 113.048 115.101 112.368C115.345 112.172 115.601 111.966 115.882 111.765C116.109 111.603 116.328 111.455 116.537 111.313C117.55 110.627 118.351 110.084 118.824 108.824C119.308 107.533 119.197 106.621 118.824 105.294C118.555 104.34 118.136 103.79 117.626 103.122C117.447 102.888 117.257 102.639 117.059 102.353C116.795 101.973 116.576 101.613 116.369 101.274Z" fill="white"/>
<path d="M70.5882 142.353C71.0551 139.827 73.5294 136.471 73.5294 136.471C73.5294 136.471 64.4673 140.575 58.8235 143.529C50.7955 147.732 46.4238 150.36 38.8235 155.294C30.2673 160.849 25.9128 164.61 17.6471 170.588C10.9825 175.409 5.85263 176.621 0.588235 182.941C-2.51336 186.664 -3.74929 189.178 -5.88235 193.529C-7.83525 197.513 -10 204.118 -10 204.118L221.765 207.059C221.765 207.059 222.188 200.226 221.765 195.882C221.122 189.283 220.357 185.463 217.647 179.412C216.133 176.031 215.03 174.235 212.941 171.176C209.456 166.072 207.036 163.446 202.353 159.412C192.701 151.095 184.682 150.242 172.941 145.294C157.476 138.776 132.353 132.353 132.353 132.353V136.471C132.353 136.471 134.292 136.747 135.294 138.235C137.367 141.313 138.317 143.382 138.824 147.059C139.493 151.924 138.94 155.167 136.471 159.412C132.746 165.816 127.178 166.991 120 168.823C113.323 170.528 109.141 170.016 102.353 168.823C96.1278 167.73 92.5744 166.616 87.0588 163.529C81.9243 160.656 75.2941 154.118 75.2941 154.118C75.2941 154.118 69.6887 147.219 70.5882 142.353Z" fill="white"/>
</g>
</svg>
