<svg width="100" height="100" viewBox="0 0 100 100" fill="none" xmlns="http://www.w3.org/2000/svg">
<circle cx="50" cy="50" r="50" fill="#6E8F7B"/>
<mask id="mask0_1_11" style="mask-type:alpha" maskUnits="userSpaceOnUse" x="0" y="0" width="100" height="100">
<circle cx="50" cy="50" r="50" fill="#FED18F"/>
</mask>
<g mask="url(#mask0_1_11)">
<path d="M67.9412 40.5882C67.9412 43.5724 67.6229 46.4413 67.0362 49.1176C66.9273 49.6146 66.809 50.105 66.6819 50.5882C64.1395 60.2501 58.0234 67.0588 50.8823 67.0588C45.3719 67.0588 40.4716 63.0044 37.3529 56.7133C36.3486 54.6872 35.529 52.4292 34.9333 50C34.2162 47.0756 33.8235 43.9031 33.8235 40.5882C33.8235 39.1876 33.1002 37.5183 33.2353 36.1764C33.5888 32.6647 33.2607 29.6758 34.4117 26.7647C35.5958 23.7701 35.8172 20.875 37.647 18.8235C40.4531 15.6775 47.156 14.1176 50.8823 14.1176C54.9448 14.1176 59.7172 15.1447 62.647 18.8235C66.1898 23.272 67.5197 31.0541 67.8903 38.5294C67.924 39.2088 67.9412 39.8954 67.9412 40.5882Z" fill="#FFDFC1"/>
<path d="M33.8235 40.5882C33.8235 40.5882 32.6147 39.4991 31.7647 39.7058C31.2067 39.8416 30.8681 40.0867 30.5882 40.5882C30.2523 41.19 30.3675 41.7 30.5882 42.3529C30.8237 43.0496 31.4945 43.1395 31.7647 43.8235C32.1023 44.6781 31.6061 45.2713 31.7647 46.1764C31.934 47.1431 32.1428 47.6874 32.647 48.5294C33.0249 49.1604 33.1264 49.7655 33.8235 50C34.2343 50.1381 34.9333 50 34.9333 50C34.2162 47.0756 33.8235 43.9031 33.8235 40.5882Z" fill="#FFDFC1"/>
<path d="M67.8903 38.5294C67.924 39.2088 67.9412 39.8954 67.9412 40.5882C67.9412 43.5724 67.6229 46.4413 67.0362 49.1176L67.8903 48.8235C67.8903 48.8235 68.5602 47.921 68.8235 47.3529C69.1475 46.6538 69.2821 46.3477 69.4118 45.5882C69.5484 44.7876 69.4118 43.5294 69.4118 43.5294C69.4118 43.5294 69.2231 42.2521 69.4118 41.4706C69.5925 40.7216 70 39.7058 70 39.7058C70 39.7058 70.3137 38.7163 70 38.2353C69.7738 37.8884 69.5296 37.6897 69.1176 37.647C68.5305 37.5862 67.8903 38.5294 67.8903 38.5294Z" fill="#FFDFC1"/>
<path d="M66.6819 50.5882C64.1395 60.2501 58.0234 67.0588 50.8823 67.0588C45.3719 67.0588 40.4716 63.0044 37.3529 56.7133V67.0588L36.7647 68.2353L35.2941 69.1176L33.8235 73.2353L36.7647 78.2353L43.8235 83.8235L58.5294 85.8823L69.4118 83.2353L73.5294 78.2353L67.8903 68.2353H66.1764L66.6819 50.5882Z" fill="#FFDFC1"/>
<path d="M45.8824 18.5294H50C50 18.5294 52.6858 18.2839 54.4118 18.2353C55.6748 18.1998 56.386 18.1587 57.6471 18.2353C58.6853 18.2984 59.3542 18.0842 60.2942 18.5294C60.9588 18.8443 61.4565 19.0381 61.7647 19.7059C62.0535 20.3316 61.5271 20.8237 61.7647 21.4706C61.9628 22.0097 62.2761 22.2087 62.6471 22.6471C63.1717 23.2671 63.8946 23.3367 64.1177 24.1177C64.2439 24.5594 64.0542 24.8391 64.1177 25.2941C64.2386 26.1605 64.5417 26.6079 65 27.353C65.3854 27.9794 65.8925 28.1451 66.1765 28.8235C66.5757 29.7771 66.1348 30.4377 66.1765 31.4706C66.2558 33.4351 66.0149 34.6531 66.7647 36.4706C67.1179 37.3266 67.9412 38.5294 67.9412 38.5294L68.8236 37.6471C68.8236 37.6471 68.9476 34.4167 68.8236 32.353C68.7056 30.3904 68.5209 29.2982 68.2353 27.353C67.9473 25.3912 67.8226 24.2793 67.353 22.353C66.7508 19.8827 66.6114 18.3512 65.2942 16.1765C64.0732 14.1607 63.0678 13.1708 61.1765 11.7647C59.6095 10.5997 58.6086 10.0543 56.7647 9.41178C54.4639 8.61001 53.0242 8.47278 50.5883 8.52943C48.4928 8.57816 47.3039 8.81681 45.2942 9.41178C42.7325 10.1701 41.3668 10.9112 39.1177 12.353C36.9881 13.718 35.6345 14.4463 34.1177 16.4706C32.8236 18.1976 32.3308 19.3881 31.7647 21.4706C31.0411 24.133 31.1765 25.5882 31.4706 28.5294C31.7223 31.0464 31.4471 32.4905 31.7647 35C31.9995 36.855 32.6471 40 32.6471 40L34.1177 40.8824C34.1177 40.8824 33.8782 38.6204 33.8236 37.353C33.7741 36.2054 33.8236 34.4118 33.8236 34.4118C33.8236 34.4118 33.4269 31.917 34.1177 30.5882C34.3087 30.2208 34.4957 30.0627 34.7059 29.7059C34.9667 29.2633 35.0995 29.0048 35.2942 28.5294C35.9529 26.9209 35.3552 25.7739 35.8824 24.1177C36.3498 22.6492 36.6105 21.7285 37.6471 20.5882C38.6545 19.4801 39.4616 19.003 40.8824 18.5294C42.7348 17.912 43.9298 18.5294 45.8824 18.5294Z" fill="#604A28"/>
<path d="M35.2941 71.1765C35.5276 69.9137 36.7647 68.2353 36.7647 68.2353C36.7647 68.2353 32.2336 70.2874 29.4118 71.7647C25.3977 73.8661 23.2119 75.1799 19.4118 77.647C15.1337 80.4245 12.9564 82.3049 8.82353 85.2941C5.49123 87.7043 2.92632 88.3107 0.294117 91.4706C-1.25668 93.3322 -1.87464 94.5891 -2.94118 96.7647C-3.91762 98.7565 -5 102.059 -5 102.059L110.882 103.529C110.882 103.529 111.094 100.113 110.882 97.9412C110.561 94.6417 110.179 92.7313 108.824 89.7059C108.066 88.0156 107.515 87.1177 106.471 85.5882C104.728 83.0359 103.518 81.7232 101.176 79.7059C96.3504 75.5477 92.3409 75.1211 86.4706 72.647C78.7382 69.3882 66.1765 66.1765 66.1765 66.1765V68.2353C66.1765 68.2353 67.1459 68.3736 67.647 69.1176C68.6837 70.6567 69.1587 71.6911 69.4118 73.5294C69.7466 75.9619 69.4698 77.5834 68.2353 79.7059C66.3729 82.9078 63.589 83.4954 60 84.4117C56.6613 85.2642 54.5703 85.0079 51.1765 84.4117C48.0639 83.865 46.2872 83.3079 43.5294 81.7647C40.9622 80.3281 37.6471 77.0588 37.6471 77.0588C37.6471 77.0588 34.8443 73.6094 35.2941 71.1765Z" fill="#565A65"/>
</g>
</svg>
