<svg width="100" height="100" viewBox="0 0 100 100" fill="none" xmlns="http://www.w3.org/2000/svg">
<circle cx="50" cy="50" r="50" fill="#78AEB1"/>
<mask id="mask0_1_57" style="mask-type:alpha" maskUnits="userSpaceOnUse" x="0" y="0" width="100" height="100">
<circle cx="50" cy="50" r="50" fill="#FED18F"/>
</mask>
<g mask="url(#mask0_1_57)">
<ellipse cx="46.7647" cy="46.4706" rx="19.7059" ry="37.0588" transform="rotate(-5.712 46.7647 46.4706)" fill="#56402E"/>
<path d="M64.7059 32.6471C64.7059 35.1081 64.3351 37.4798 63.8236 39.7059C63.0125 43.2353 62.1872 44.2239 61.1765 46.1765C59.5223 48.6578 59.1603 49.6881 56.4567 51.8943C56.2761 52.0416 56.085 52.1943 55.8824 52.3529C53.4501 54.2578 50.9343 55.8824 47.9412 55.8824C44.9482 55.8824 42.4324 54.2578 40.0001 52.3529C39.8765 52.2562 39.7554 52.1582 39.6364 52.0588C38.0194 50.7084 36.8072 49.1078 35.5883 47.0588C34.387 45.0396 32.7165 42.8005 32.0589 40.2941C31.9555 39.9002 31.8627 39.5087 31.7797 39.1176C31.3408 37.0492 31.1765 34.9927 31.1765 32.6471C31.1765 32.0534 31.1926 31.4649 31.2241 30.8824C31.8748 18.8743 39.1107 9.41177 47.9412 9.41177C57.2001 9.41177 64.7059 19.8146 64.7059 32.6471Z" fill="#DCB9A5"/>
<path d="M47.9412 55.8824C44.9482 55.8824 42.4324 54.2578 40.0001 52.3529C39.8765 52.2562 39.7554 52.1582 39.6364 52.0588C39.6364 52.0588 41.6748 58.7278 39.6364 62.0588C39.0927 62.9472 37.9412 64.1176 37.9412 64.1176L32.0589 64.7059L19.7059 66.7647L27.353 83.2353L41.7648 95.8824L51.7648 99.7059L59.1177 91.4706L70.8824 72.6471L71.4706 65L65.2942 64.7059L59.7059 64.1176C59.7059 64.1176 57.8346 63.114 57.0589 62.0588C55.7502 60.2787 56.1765 56.4706 56.1765 56.4706L56.4567 51.8943C56.2761 52.0416 56.085 52.1943 55.8824 52.3529C53.4501 54.2578 50.9343 55.8824 47.9412 55.8824Z" fill="#DCB9A5"/>
<path d="M31.1765 32.6471C31.1765 32.0534 31.1926 31.4649 31.2241 30.8824C31.2241 30.8824 30.5304 30.2858 30.0001 30.2941C29.4864 30.3022 29.1177 30.4138 28.8236 30.8824C28.5295 31.3509 28.4321 32.1349 28.5295 32.9412C28.6713 34.1152 29.4908 34.521 30.0001 35.5882C30.5328 36.7047 30.3688 37.5924 31.1765 38.5294C31.3914 38.7786 31.7797 39.1176 31.7797 39.1176C31.3408 37.0492 31.1765 34.9927 31.1765 32.6471Z" fill="#DCB9A5"/>
<path d="M43.2353 13.5294C43.2353 12.5823 42.647 11.1765 42.647 11.1765L45 13.2353C45 13.2353 46.0186 13.9251 46.7647 14.1176C47.6544 14.3473 49.1176 14.1176 49.1176 14.1176C49.1176 14.1176 50.5321 13.4014 51.4706 13.5294C52.0834 13.613 52.9411 13.8235 52.9411 13.8235C52.9411 13.8235 54.3145 14.4213 55 15C55.8091 15.6831 55.7431 17.4658 56.4706 18.2353C57.2596 19.07 58.148 19.0711 58.8235 20C59.6481 21.1339 59.0723 21.6904 59.7058 22.9412C60.3623 24.2373 61.2346 24.4488 61.4706 25.8824C61.713 27.3557 61.4121 28.549 61.7647 30C62.0318 31.0993 62.533 31.592 62.9411 32.6471C63.3342 33.6633 63.6155 34.2245 63.8235 35.2941C64.1304 36.8726 63.0819 37.8099 62.9411 39.4118C62.5819 43.5006 60.5882 49.4118 60.5882 49.4118L65 64.7059L71.4706 65C71.4706 65 74.3708 65.0135 75.8823 64.1176C76.3764 63.8248 76.6527 63.6414 77.0588 63.2353C77.4649 62.8292 77.7183 62.5881 77.9411 62.0588C78.2977 61.212 77.9411 60.6248 77.9411 59.7059C77.9411 58.9019 78.0703 58.4406 77.9411 57.6471C77.7835 56.6784 77.2032 56.2648 77.0588 55.2941C76.9574 54.6125 77.0588 54.2186 77.0588 53.5294V51.4706C77.0588 51.4706 77.2506 50.1926 77.0588 49.4118C76.8379 48.5125 75.8823 47.3529 75.8823 47.3529C75.8823 47.3529 74.0879 46.2978 73.5294 45.2941C72.8757 44.1194 72.9411 41.7647 72.9411 41.7647L71.7647 38.8235V34.7059C71.7647 34.7059 71.0096 32.6642 70.8823 31.1765C70.7632 29.7842 71.2257 28.7074 70.8823 27.3529C70.2374 24.8092 68.2353 21.7647 68.2353 21.7647C68.2353 21.7647 67.6067 17.8389 66.4706 15.8824C65.4782 14.1734 62.3529 12.0588 62.3529 12.0588C62.3529 12.0588 60.5406 8.41877 58.5294 6.76471C57.0529 5.55046 56.1285 4.95847 54.4117 4.11765C53.3007 3.57353 52.6915 3.14051 51.4706 2.94118C50.5637 2.79312 50.0146 2.74185 49.1176 2.94118C48.1147 3.16404 46.7647 4.11765 46.7647 4.11765C46.7647 4.11765 46.4505 3.70383 46.1764 3.52941C45.4981 3.09775 44.9197 3.47382 44.1176 3.52941C42.8365 3.6182 42.1021 3.71601 40.8823 4.11765C38.5222 4.89479 37.4569 6.00931 35.5882 7.64706C33.4426 9.52753 33.0817 10.8807 31.4706 13.2353C29.8451 15.6108 28.351 17.0061 27.3529 19.7059C26.4543 22.1365 26.8741 24.205 26.4706 26.7647C26.0754 29.2711 25.4184 30.1128 25.2941 32.6471C25.1478 35.6298 26.2565 37.6096 26.4706 40.5882C26.6953 43.7152 26.0485 45.1288 26.4706 48.2353C26.8445 50.9881 28.2501 52.5161 28.2353 55.2941C28.221 57.9582 27.7112 59.7012 26.4706 62.0588C25.4115 64.0713 22.3529 66.1765 22.3529 66.1765L37.647 64.1176L38.2353 52.9412L27.3529 32.6471L28.8235 28.5294C28.8235 28.5294 29.9535 29.3661 30.5882 30C31.6936 31.104 32.9411 33.2353 32.9411 33.2353V27.9412C32.9411 26.9074 32.6691 26.2914 32.9411 25.2941C33.268 24.0955 33.8232 23.5214 34.7058 22.6471C35.4078 21.9517 36.7647 21.1765 36.7647 21.1765C36.7647 21.1765 38.6839 18.5724 40 17.3529C40.9532 16.4697 42.0564 17.0399 42.647 15.8824C43.0775 15.0387 43.2353 14.4766 43.2353 13.5294Z" fill="#56402E"/>
<path d="M74.7059 63.8235C71.2308 63.7328 66.1765 64.7059 66.1765 64.7059C66.1765 64.7059 65.7922 67.7867 65.2941 69.7059C63.8227 75.376 61.3376 77.9723 58.2353 82.9412C54.8407 88.3781 48.5294 96.1765 48.5294 96.1765C48.5294 96.1765 41.6733 88.5141 38.2353 82.9412C35.4034 78.3509 33.8798 75.6651 32.0588 70.5883C31.2491 68.3307 30.2941 64.7059 30.2941 64.7059C30.2941 64.7059 26.865 65.1199 24.7059 65.5883C22.3184 66.1061 21.0306 66.4299 18.7178 67.0115L18.5294 67.0589C17.0432 67.4325 16.3522 67.8085 15 68.5295C13.7795 69.1801 13.0161 69.59 12.0588 70.5883C10.755 71.948 10.0084 72.7519 9.11764 74.4118C7.77403 76.9155 7.89334 78.681 7.35293 81.4706C6.60508 85.331 6.42155 87.5461 6.17646 91.4706C5.89726 95.9415 6.17646 102.941 6.17646 102.941H20.5882L18.5294 88.5294L21.1765 102.941H82.3529L83.2353 89.4118L82.9412 102.941H98.2353V96.1765C98.2353 96.1765 97.7478 90.0478 97.0588 86.1765C96.4388 82.6929 96.1431 80.7016 95 77.353C94.0693 74.6268 93.8011 72.8823 92.0588 70.5883C90.5818 68.6436 89.4802 67.6697 87.3529 66.4706C85.5491 65.4539 84.3518 65.2466 82.3529 64.7059C79.5596 63.9502 77.6319 63.8999 74.7486 63.8246L74.7059 63.8235Z" fill="#191E2E"/>
</g>
</svg>
