<svg width="318" height="72" viewBox="0 0 318 72" fill="none" xmlns="http://www.w3.org/2000/svg">
<path d="M14.52 52.94C19.16 52.94 21.48 51.22 21.48 47.78C21.48 46.38 21.12 45.28 20.4 44.48C19.72 43.68 18.44 42.98 16.56 42.38L11.64 40.76C5.76 38.84 2.82 34.98 2.82 29.18C2.82 25.82 3.86 23.06 5.94 20.9C8.06 18.7 11.36 17.6 15.84 17.6C17.72 17.6 19.58 17.82 21.42 18.26C23.26 18.66 25.22 19.32 27.3 20.24L25.08 26.42C23.16 25.66 21.52 25.12 20.16 24.8C18.84 24.44 17.48 24.26 16.08 24.26C14.24 24.26 12.78 24.6 11.7 25.28C10.66 25.92 10.14 27.1 10.14 28.82C10.14 30.1 10.5 31.16 11.22 32C11.98 32.8 13.22 33.48 14.94 34.04L19.86 35.66C22.82 36.66 25.04 38.12 26.52 40.04C28.04 41.92 28.8 44.42 28.8 47.54C28.8 51.14 27.66 54.06 25.38 56.3C23.1 58.5 19.52 59.6 14.64 59.6C12.72 59.6 10.72 59.38 8.64 58.94C6.6 58.46 4.36 57.66 1.92 56.54L4.14 50.36C6.38 51.32 8.28 52 9.84 52.4C11.44 52.76 13 52.94 14.52 52.94Z" fill="white"/>
<path d="M70.46 18.2L57.98 42.62V59H50.78V42.74L38.18 18.2H45.86L54.68 35.6L63.02 18.2H70.46Z" fill="white"/>
<path d="M194.28 52.1V59H170.64V18.2H193.68V25.1H177.84V34.88H191.88V41.78H177.84V52.1H194.28Z" fill="white"/>
<path d="M204.78 25.1V18.2H234.78V25.1H223.38V59H216.18V25.1H204.78Z" fill="white"/>
<path d="M254.84 44V59H247.64V18.2H261.26C265.38 18.2 268.54 19.26 270.74 21.38C272.98 23.46 274.1 26.26 274.1 29.78V32.36C274.1 34.68 273.6 36.72 272.6 38.48C271.6 40.24 270.16 41.58 268.28 42.5C271.56 48.1 274.36 53.6 276.68 59H268.46C266.46 54 264.08 49 261.32 44H254.84ZM261.26 24.8H254.84V37.4H261.26C263.02 37.4 264.36 36.96 265.28 36.08C266.24 35.16 266.72 33.92 266.72 32.36V29.78C266.72 28.26 266.24 27.06 265.28 26.18C264.36 25.26 263.02 24.8 261.26 24.8Z" fill="white"/>
<path d="M317.46 18.2L304.98 42.62V59H297.78V42.74L285.18 18.2H292.86L301.68 35.6L310.02 18.2H317.46Z" fill="white"/>
<path d="M90.5 18.2L101.9 46.1L113.24 18.2H121.1V59H114.2V43.4L115.1 29.12L104.96 54.2H98.54L88.64 29.06L89.54 43.4V59H82.64V18.2H90.5Z" fill="white"/>
<g style="mix-blend-mode:plus-lighter">
<path d="M122.5 18.2L133.9 46.1L145.24 18.2H153.1V59H146.2V43.4L147.1 29.12L136.96 54.2H130.54L120.64 29.06L121.54 43.4V59H114.64V18.2H122.5Z" fill="white"/>
</g>
</svg>
